<?xml version="1.0" standalone="no"?>
<!DOCTYPE svg PUBLIC "-//W3C//DTD SVG 20010904//EN"
 "http://www.w3.org/TR/2001/REC-SVG-20010904/DTD/svg10.dtd">
<svg version="1.0" xmlns="http://www.w3.org/2000/svg"
 width="600.000000pt" height="600.000000pt" viewBox="0 0 600.000000 600.000000"
 preserveAspectRatio="xMidYMid meet">

<g transform="translate(0.000000,600.000000) scale(0.100000,-0.100000)"
fill="#000000" stroke="none">
<path d="M2586 5213 c-4 -5 -53 -11 -109 -15 -148 -10 -235 -22 -249 -36 -7
-7 -26 -12 -44 -12 -42 0 -109 -36 -123 -67 -14 -30 -15 -463 -1 -513 5 -19
12 -122 14 -228 3 -106 9 -198 13 -205 4 -6 11 -41 15 -77 10 -97 17 -127 49
-194 25 -52 113 -134 185 -172 103 -54 116 -70 95 -112 -5 -9 -18 -37 -30 -61
-12 -24 -28 -55 -35 -70 -8 -14 -17 -33 -20 -41 -3 -8 -17 -33 -30 -55 -14
-22 -33 -56 -43 -75 -9 -19 -32 -61 -50 -93 -18 -33 -33 -63 -33 -69 0 -5 -11
-24 -25 -42 -14 -18 -25 -38 -25 -43 0 -10 -33 -70 -72 -131 -25 -40 -23 -62
7 -62 22 0 25 4 25 35 0 22 6 38 15 41 8 4 15 12 15 20 0 14 48 105 60 114 7
5 50 96 50 106 0 3 11 20 25 38 14 18 25 38 25 43 0 14 26 64 37 72 9 6 53 95
53 107 0 3 11 20 25 38 14 18 25 38 25 44 0 11 34 78 51 98 6 7 26 2 66 -17
32 -16 66 -29 75 -29 9 0 20 -4 23 -10 3 -5 23 -17 43 -26 20 -9 54 -24 75
-35 22 -10 45 -19 52 -19 28 0 48 -50 41 -104 -4 -28 -9 -87 -12 -131 -3 -44
-9 -89 -14 -100 -6 -11 -15 -63 -21 -115 -6 -52 -15 -129 -20 -170 -5 -41 -13
-120 -18 -175 -5 -55 -12 -113 -15 -130 -4 -16 -14 -70 -22 -120 -9 -49 -20
-97 -24 -106 -11 -21 -3 -29 27 -29 22 0 24 3 18 29 -3 16 -1 48 5 70 14 53
29 152 41 266 4 50 13 126 18 170 5 44 14 123 20 175 6 52 14 102 18 110 6 14
13 67 28 220 10 100 8 97 75 104 33 4 72 13 87 21 16 8 37 15 48 15 12 0 26 5
32 11 6 6 21 9 34 7 28 -4 38 -36 48 -148 3 -41 9 -80 14 -87 4 -6 3 -23 -3
-37 -9 -25 -8 -26 25 -26 33 0 46 12 26 24 -10 7 -18 44 -32 151 -17 141 -17
140 11 143 14 2 29 8 35 13 5 5 18 9 30 9 12 0 30 7 41 15 10 8 36 15 56 15
20 0 39 4 42 9 3 5 20 11 38 14 18 4 48 9 66 13 35 7 72 -15 72 -42 0 -7 9
-29 20 -49 11 -20 20 -44 20 -55 0 -10 4 -22 10 -25 10 -6 34 -57 72 -155 6
-14 14 -32 19 -40 5 -8 12 -22 15 -30 3 -8 9 -24 14 -35 4 -11 24 -54 44 -96
20 -42 36 -82 37 -90 0 -8 9 -27 20 -44 10 -16 21 -37 25 -45 3 -8 10 -23 15
-32 5 -10 9 -34 9 -53 0 -31 3 -35 25 -35 31 0 33 22 5 68 -11 18 -20 41 -20
52 0 10 -4 22 -10 25 -9 5 -32 53 -49 100 -4 11 -20 47 -35 80 -16 33 -32 69
-36 80 -5 11 -25 55 -44 97 -20 42 -36 81 -36 87 0 6 -11 29 -25 51 -14 22
-25 44 -25 48 0 17 -43 117 -58 134 -16 19 -9 38 15 38 9 0 30 4 47 10 17 5
50 16 74 23 56 18 118 69 138 115 9 21 22 52 30 70 9 20 14 68 14 127 0 51 4
105 9 118 6 14 11 105 12 203 l3 177 -39 33 c-21 19 -46 34 -55 34 -9 0 -20 4
-25 9 -6 5 -28 11 -50 15 -127 18 -154 23 -166 33 -8 6 -34 13 -59 17 -25 3
-65 8 -89 12 -80 12 -148 -26 -188 -104 -7 -13 -13 -31 -13 -40 0 -18 -18 -78
-31 -104 -5 -10 -9 -24 -9 -31 0 -21 -39 -90 -56 -100 -20 -11 -84 37 -84 63
0 10 -4 21 -9 24 -4 3 -11 36 -14 73 -13 138 -24 221 -33 234 -4 7 -12 54 -16
104 -7 87 -16 143 -37 250 -17 89 -66 182 -111 210 -37 23 -48 25 -173 25 -74
0 -137 -3 -141 -7z m282 -42 c2 -6 8 -11 14 -11 15 0 38 -27 38 -45 0 -9 7
-23 15 -31 8 -9 15 -24 15 -34 0 -10 5 -22 10 -25 6 -3 10 -26 10 -51 0 -24 4
-44 9 -44 5 0 12 -24 15 -52 15 -149 27 -235 36 -256 6 -13 10 -59 10 -102 0
-47 4 -80 10 -80 6 0 10 -25 10 -55 0 -30 5 -55 10 -55 6 0 10 -11 10 -24 0
-14 7 -31 15 -40 8 -8 15 -18 15 -23 0 -5 9 -15 20 -23 11 -8 20 -22 20 -32 0
-11 -7 -18 -20 -18 -11 0 -20 -7 -20 -15 0 -11 11 -15 41 -15 39 0 69 17 69
39 0 6 7 11 15 11 8 0 15 9 15 20 0 11 5 20 10 20 6 0 10 11 10 25 0 14 5 25
10 25 6 0 10 10 10 23 1 12 7 33 15 47 8 14 14 35 15 48 0 12 5 22 10 22 6 0
10 16 10 35 0 19 5 35 10 35 6 0 10 8 10 18 0 20 33 52 55 52 8 0 15 5 15 10
0 6 25 10 55 10 30 0 55 -4 55 -10 0 -5 23 -10 50 -10 28 0 50 -4 50 -8 0 -8
97 -29 183 -38 26 -3 47 -10 47 -15 0 -5 9 -9 21 -9 11 0 28 -7 37 -16 14 -14
16 -41 13 -193 -1 -99 -6 -177 -12 -179 -5 -2 -9 -61 -9 -133 0 -78 -4 -129
-10 -129 -5 0 -12 -11 -16 -25 -3 -14 -10 -25 -15 -25 -5 0 -9 -7 -9 -16 0
-23 -60 -74 -87 -74 -13 0 -23 -4 -23 -10 0 -5 -16 -10 -35 -10 -19 0 -35 -4
-35 -10 0 -5 -15 -10 -33 -10 -18 0 -42 -7 -53 -15 -10 -8 -34 -15 -51 -15
-18 0 -33 -4 -33 -10 0 -5 -15 -10 -34 -10 -19 0 -38 -4 -41 -10 -3 -5 -18
-10 -33 -10 -15 -1 -38 -7 -52 -15 -14 -8 -40 -14 -57 -15 -18 0 -33 -4 -33
-10 0 -5 -20 -10 -45 -10 -25 0 -45 -4 -45 -9 0 -5 -12 -11 -27 -14 -65 -14
-123 -32 -123 -39 0 -5 -39 -8 -86 -8 -84 0 -114 10 -114 39 0 6 -3 11 -7 11
-11 0 -43 58 -43 76 0 8 -4 14 -10 14 -5 0 -10 20 -10 45 0 25 -4 45 -10 45
-5 0 -10 7 -10 15 0 25 -34 125 -42 125 -4 0 -8 16 -8 35 0 19 -4 35 -10 35
-5 0 -10 16 -10 35 0 19 -4 35 -10 35 -5 0 -12 16 -16 35 -3 19 -10 35 -15 35
-5 0 -9 14 -9 30 0 17 -4 30 -10 30 -5 0 -10 11 -10 25 0 14 -4 25 -10 25 -5
0 -10 5 -10 10 0 11 -12 28 -43 59 -26 26 -4 36 30 14 46 -30 86 -76 99 -115
4 -10 10 -18 15 -18 5 0 9 -13 9 -30 0 -16 3 -30 8 -30 4 0 15 -27 26 -60 10
-33 22 -60 27 -60 5 0 9 -20 9 -45 0 -25 5 -45 10 -45 6 0 10 -10 10 -22 1
-13 7 -34 15 -48 8 -14 14 -35 15 -47 0 -13 5 -23 10 -23 6 0 10 -16 10 -35 0
-19 5 -35 10 -35 6 0 10 -7 10 -15 0 -8 9 -24 20 -35 11 -11 27 -20 35 -20 8
0 15 -4 15 -10 0 -5 20 -10 45 -10 25 0 45 4 45 9 0 5 12 11 28 14 47 10 116
29 134 38 10 5 36 9 58 9 22 0 40 5 40 10 0 6 16 10 35 10 19 0 35 4 35 9 0 8
74 28 143 38 20 3 37 9 37 14 0 5 23 9 50 9 28 0 50 4 50 9 0 5 20 12 45 15
24 4 47 11 50 17 4 5 19 9 36 9 16 0 29 4 29 9 0 5 9 11 21 14 11 3 23 15 26
26 3 12 9 21 14 21 5 0 9 9 9 19 0 11 4 21 10 23 10 3 25 168 36 399 l7 136
-37 36 c-20 20 -43 37 -51 37 -8 0 -15 5 -15 10 0 6 -20 10 -45 10 -25 0 -45
5 -45 10 0 6 -13 10 -28 10 -16 0 -51 7 -78 15 -27 8 -61 15 -76 15 -14 0 -28
6 -30 12 -3 9 -9 8 -21 -4 -23 -22 -21 -38 3 -38 11 0 20 -4 20 -10 0 -5 23
-10 50 -10 28 0 50 -4 50 -10 0 -5 15 -10 33 -10 17 -1 50 -7 72 -15 22 -8 52
-15 68 -15 15 0 27 -4 27 -10 0 -5 5 -10 11 -10 6 0 17 -7 26 -15 12 -13 14
-41 9 -178 -8 -226 -19 -344 -33 -359 -7 -6 -13 -18 -13 -26 0 -32 -51 -57
-142 -69 -21 -3 -38 -9 -38 -14 0 -5 -20 -9 -45 -9 -25 0 -45 -4 -45 -9 0 -5
-20 -12 -45 -15 -24 -4 -47 -11 -50 -17 -4 -5 -26 -9 -51 -9 -24 0 -44 -4 -44
-9 0 -5 -17 -11 -37 -14 -84 -12 -135 -25 -145 -35 -7 -7 -27 -12 -45 -12 -18
0 -33 -4 -33 -10 0 -5 -18 -10 -40 -10 -22 0 -40 -4 -40 -10 0 -5 -16 -10 -36
-10 -35 0 -64 18 -64 39 0 6 -4 11 -10 11 -5 0 -10 12 -10 26 0 14 -7 32 -15
40 -8 9 -15 31 -15 50 0 19 -4 34 -10 34 -5 0 -10 11 -10 25 0 14 -4 25 -10
25 -5 0 -10 13 -10 30 0 16 -5 40 -11 54 -16 35 7 56 60 56 23 0 41 5 41 10 0
6 14 10 31 10 17 0 38 7 46 16 13 13 35 15 116 12 69 -2 102 -7 105 -15 2 -7
15 -13 28 -13 13 0 24 -4 24 -10 0 -5 14 -10 30 -10 17 0 30 -4 30 -10 0 -5
16 -12 35 -16 19 -3 38 -10 41 -15 3 -5 14 -9 25 -9 10 0 19 -4 19 -10 0 -5
18 -10 39 -10 22 0 41 -3 43 -7 4 -11 99 -43 126 -43 12 0 22 -4 22 -10 0 -15
19 -12 37 6 14 13 14 17 2 25 -8 5 -20 9 -26 9 -7 0 -13 5 -13 10 0 6 -20 10
-45 10 -25 0 -45 5 -45 10 0 6 -8 10 -18 10 -10 0 -27 7 -38 15 -10 8 -34 15
-51 15 -18 0 -33 5 -33 10 0 6 -11 10 -25 10 -14 0 -25 5 -25 10 0 6 -13 10
-29 10 -16 0 -31 6 -35 15 -3 8 -15 15 -26 15 -11 0 -20 5 -20 10 0 6 -15 10
-34 10 -19 0 -36 5 -38 12 -3 9 -37 12 -113 12 -76 0 -110 -3 -113 -12 -2 -7
-21 -12 -42 -12 -21 0 -42 -4 -45 -10 -3 -5 -21 -10 -40 -10 -19 0 -37 -4 -40
-10 -3 -5 -15 -10 -26 -10 -14 0 -19 7 -19 30 0 17 -4 30 -10 30 -5 0 -10 6
-10 14 0 18 -32 76 -42 76 -5 0 -8 7 -8 15 0 8 -4 15 -10 15 -5 0 -10 6 -10
13 0 17 -55 77 -71 77 -8 0 -23 7 -33 15 -11 8 -28 15 -38 15 -10 0 -18 5 -18
10 0 6 -16 10 -35 10 -19 0 -35 5 -35 10 0 6 -11 10 -25 10 -14 0 -25 5 -25
10 0 6 -10 10 -22 10 -13 1 -34 7 -48 15 -29 17 -175 21 -185 5 -17 -28 -25
-1 -25 89 0 55 -4 101 -10 103 -5 2 -10 98 -11 240 -2 204 0 239 14 252 8 9
20 16 26 16 6 0 11 4 11 9 0 6 20 13 45 17 25 3 45 10 45 15 0 5 36 9 80 9 47
0 80 4 80 10 0 6 36 10 88 10 48 0 92 4 98 10 20 20 285 21 292 1z m-630 -859
c29 -10 55 -22 59 -25 3 -4 19 -7 35 -7 15 0 28 -4 28 -10 0 -5 8 -10 19 -10
43 0 150 -76 151 -107 0 -7 5 -13 10 -13 6 0 10 -9 10 -19 0 -11 3 -21 8 -23
11 -5 42 -76 42 -98 0 -11 5 -20 10 -20 6 0 10 -16 10 -35 0 -19 5 -35 10 -35
6 0 10 -10 10 -22 1 -13 7 -34 15 -48 8 -14 14 -40 15 -57 0 -18 5 -33 10 -33
6 0 10 -16 10 -35 0 -19 5 -35 10 -35 6 0 10 -10 10 -22 1 -13 7 -34 15 -48
23 -41 19 -70 -10 -70 -14 0 -25 3 -25 8 0 10 -58 42 -76 42 -8 0 -14 5 -14
10 0 6 -11 10 -25 10 -14 0 -25 5 -25 10 0 6 -9 10 -19 10 -10 0 -21 7 -25 15
-3 8 -15 15 -26 15 -11 0 -20 5 -20 10 0 6 -9 10 -20 10 -11 0 -20 4 -20 9 0
5 -10 11 -23 15 -12 3 -32 14 -44 26 -12 11 -29 20 -38 20 -8 0 -15 5 -15 10
0 6 -5 10 -11 10 -12 0 -39 25 -39 36 0 3 -8 14 -18 23 -25 23 -52 67 -52 86
0 8 -4 15 -10 15 -5 0 -10 16 -10 35 0 19 -4 35 -8 35 -8 0 -29 133 -39 243
-8 90 20 106 125 69z m272 -42 c0 -5 -7 -10 -15 -10 -8 0 -15 5 -15 10 0 6 7
10 15 10 8 0 15 -4 15 -10z"/>
</g>
</svg>
